<svg xmlns="http://www.w3.org/2000/svg" width="1200" height="800" viewBox="0 0 1200 800" fill="none">
  <rect width="1200" height="800" fill="#F4FBF7"/>
  <rect x="112" y="120" width="976" height="560" rx="42" fill="#153A28"/>
  <rect x="170" y="180" width="860" height="440" rx="28" fill="#FDFFFE"/>
  <circle cx="340" cy="370" r="110" fill="#2ECC8E"/>
  <path d="M340 280c14 0 24 28 24 62 0 34-10 62-24 62s-24-28-24-62c0-34 10-62 24-62ZM270 370c0-14 28-24 62-24 34 0 62 10 62 24s-28 24-62 24c-34 0-62-10-62-24Z" fill="white"/>
  <rect x="560" y="276" width="360" height="28" rx="14" fill="#153A28" fill-opacity=".14"/>
  <rect x="560" y="338" width="324" height="22" rx="11" fill="#153A28" fill-opacity=".1"/>
  <rect x="560" y="386" width="286" height="22" rx="11" fill="#153A28" fill-opacity=".1"/>
</svg>
